<svg width="89" height="31" viewBox="0 0 89 31" fill="none" xmlns="http://www.w3.org/2000/svg">
                        <path d="M0.21 15.86L0.48 14.63L10.59 9.53L10.38 11.93L3.72 15.41L9.18 18.26L8.52 20.57L0.21 15.86ZM24.2159 2.96C22.9559 3 21.9859 3.48 21.3059 4.4C20.6459 5.32 20.3159 6.91 20.3159 9.17C20.3159 9.91 20.3859 10.43 20.5259 10.73C20.6659 11.01 20.7359 11.17 20.7359 11.21C19.6559 11.21 18.8459 10.99 18.3059 10.55C17.7859 10.09 17.5259 9.34 17.5259 8.3C17.5259 6.88 17.8759 5.59 18.5759 4.43C19.2759 3.25 20.3859 2.3 21.9059 1.58C23.4459 0.859998 25.3959 0.499998 27.7559 0.499998C28.2359 0.499998 28.8759 0.549998 29.6759 0.649998C31.1159 0.789999 32.1359 0.859999 32.7359 0.859999C33.7959 0.859999 34.6959 0.739999 35.4359 0.499998C35.3759 0.679998 35.2659 1.08 35.1059 1.7C34.9459 2.3 34.6559 2.82 34.2359 3.26C33.8359 3.68 33.2859 3.96 32.5859 4.1C31.4059 4.1 30.0059 3.91 28.3859 3.53L27.1259 9.5H31.5059L31.0259 11.72H26.6459L24.2159 23H19.8959L24.2159 2.96ZM38.3754 23.54C37.1154 23.54 36.0054 23.32 35.0454 22.88C34.0854 22.44 33.3454 21.83 32.8254 21.05C32.3054 20.25 32.0454 19.33 32.0454 18.29C32.0454 17.41 32.2254 16.61 32.5854 15.89C32.9654 15.17 33.4654 14.6 34.0854 14.18C34.7254 13.76 35.4254 13.55 36.1854 13.55C36.8854 13.55 37.4754 13.73 37.9554 14.09C38.4354 14.43 38.7354 14.91 38.8554 15.53C37.8154 15.53 36.9854 15.81 36.3654 16.37C35.7454 16.91 35.4354 17.65 35.4354 18.59C35.4354 19.45 35.6954 20.14 36.2154 20.66C36.7354 21.18 37.4254 21.44 38.2854 21.44C39.3454 21.44 40.2154 21.09 40.8954 20.39C41.5954 19.67 41.9454 18.77 41.9454 17.69C41.9454 16.75 41.6854 15.86 41.1654 15.02C40.6454 14.18 39.8654 13.16 38.8254 11.96C37.7454 10.72 36.9254 9.66 36.3654 8.78C35.8254 7.88 35.5554 6.9 35.5554 5.84C35.5554 4.8 35.8454 3.87 36.4254 3.05C37.0054 2.21 37.8054 1.55 38.8254 1.07C39.8454 0.589999 40.9954 0.349998 42.2754 0.349998C43.8954 0.349998 45.1854 0.729999 46.1454 1.49C47.1254 2.25 47.6154 3.27 47.6154 4.55C47.6154 5.39 47.4054 6.07 46.9854 6.59C46.5654 7.11 46.0154 7.37 45.3354 7.37C44.5754 7.37 43.9654 7.06 43.5054 6.44C43.8854 6.16 44.1854 5.79 44.4054 5.33C44.6254 4.87 44.7354 4.39 44.7354 3.89C44.7354 3.25 44.5454 2.74 44.1654 2.36C43.7854 1.98 43.2654 1.79 42.6054 1.79C41.8054 1.79 41.1454 2.08 40.6254 2.66C40.1254 3.22 39.8754 3.94 39.8754 4.82C39.8754 5.62 40.1054 6.37 40.5654 7.07C41.0254 7.75 41.7454 8.63 42.7254 9.71C43.5254 10.57 44.1654 11.31 44.6454 11.93C45.1454 12.55 45.5654 13.27 45.9054 14.09C46.2654 14.89 46.4454 15.76 46.4454 16.7C46.4454 17.98 46.0854 19.14 45.3654 20.18C44.6654 21.22 43.6954 22.04 42.4554 22.64C41.2354 23.24 39.8754 23.54 38.3754 23.54ZM57.1048 3.14H56.7448C54.9648 3.14 53.5748 3.59 52.5748 4.49C51.5948 5.37 51.1048 6.94 51.1048 9.2C51.1048 9.94 51.1748 10.46 51.3148 10.76C51.4548 11.04 51.5248 11.2 51.5248 11.24C50.4448 11.24 49.6348 11.02 49.0948 10.58C48.5748 10.12 48.3148 9.37 48.3148 8.33C48.3148 6.91 48.6648 5.62 49.3648 4.46C50.0648 3.28 51.1748 2.33 52.6948 1.61C54.2348 0.889999 56.1848 0.53 58.5448 0.53C59.8648 0.53 61.2848 0.649999 62.8048 0.889999C64.0848 1.11 65.2248 1.22 66.2248 1.22C67.5048 1.22 68.6648 1.01 69.7048 0.589999C69.6648 1.89 69.3348 2.85 68.7148 3.47C68.0948 4.09 67.1748 4.4 65.9548 4.4C65.3148 4.4 64.6748 4.35 64.0348 4.25C63.3948 4.15 62.4848 3.98 61.3048 3.74L57.1648 23H52.8448L57.1048 3.14ZM75.772 0.499998H77.932L71.572 30.5H69.412L75.772 0.499998ZM78.8184 18.17L85.4784 14.69L80.0184 11.84L80.6784 9.53L88.9884 14.24L88.7184 15.47L78.6084 20.57L78.8184 18.17Z" fill="white" />
                    </svg>